<?xml version="1.0" encoding="UTF-8" standalone="no"?>
<svg xmlns:inkscape="http://www.inkscape.org/namespaces/inkscape" xmlns:rdf="http://www.w3.org/1999/02/22-rdf-syntax-ns#" xmlns="http://www.w3.org/2000/svg" xmlns:cc="http://creativecommons.org/ns#" xmlns:dc="http://purl.org/dc/elements/1.1/" xmlns:sodipodi="http://sodipodi.sourceforge.net/DTD/sodipodi-0.dtd" id="raven" sodipodi:docname="_svgclean2.svg" viewBox="0 0 731.5 541.5" version="1.1" inkscape:version="0.48.3.1 r9886">
  <sodipodi:namedview id="namedview11" bordercolor="#666666" inkscape:pageshadow="2" guidetolerance="10" pagecolor="#ffffff" gridtolerance="10" inkscape:window-maximized="0" inkscape:zoom="0.22425739" objecttolerance="10" borderopacity="1" inkscape:current-layer="raven" inkscape:cx="214.04724" inkscape:cy="97.318909" inkscape:window-y="0" inkscape:window-x="0" inkscape:window-width="743" showgrid="false" inkscape:pageopacity="0" inkscape:window-height="484"/>
  <g id="g3" transform="matrix(.5 0 0 .5 -158 -82)">
    <path id="wing" style="fill:#4d4d4d" inkscape:connector-curvature="0" d="m1433 165c-25 0-47 2-60 7-28 5-70 28-147 121-54 66-180 144-205 162-234 177-419 361-419 404 0 6-226 312-206 315 57 10 322-115 451-192 180-107 375-207 467-283 80-67 329-234 278-335-14-27 8-27-76-17-24 3-65-15-46-41 30-42 159-68 156-86-7-36-118-56-194-56v1zm40 66c15 0 27 12 27 27s-12 27-27 27-27-12-27-27 12-27 27-27z"/>
    <path id="pecker" style="fill:#cccccc" inkscape:connector-curvature="0" d="m1627 223 118 57 33 32-191 25-68 11s-53-5-57-15c-6-13 0-34 13-40l130-62"/>
    <path id="foots" style="fill:#b3b3b3" inkscape:connector-curvature="0" d="m1066 996 15-4 76 44 50 27c26 16 28 8 37 7l31-41c36 27 127 46 171 54l26 48-79-18-24 13-108-41 54 41-48-15-37-1-8 17-34-22-85 7 11-29 35-18-84-69z"/>
    <path id="mainbody" style="fill:#2e2e2e" inkscape:connector-curvature="0" d="m380 1240c-2 0-4-1-4-2-1-2 3-8 9-15 2-3 6-8 8-11s5-7 7-9c3-4 4-7 3-8s-3 0-9 3c-4 2-8 5-9 5-1 1-2 2-4 3s-5 2-7 3-8 5-13 9c-12 10-13 10-20 10-4 0-7 1-11 3-7 3-13 5-14 5 0 0 2-3 6-7s15-15 25-26c26-28 34-36 71-70 4-4 14-13 24-22 9-9 21-19 26-24s10-10 11-12c2-4 11-9 9-6-1 1-7 8-15 15-13 12-30 30-26 28 3-2 17-13 27-22 27-23 38-33 53-45 9-7 17-14 18-16s5-4 8-7c3-2 8-7 12-10 4-4 8-7 9-7s10-8 20-17 20-18 23-20 7-5 8-6c4-4 4-2 0 2-20 21-24 24-42 39-2 2-7 6-10 9l-13 13c-19 18-37 35-47 43-6 5-15 13-21 18-10 8-21 18-34 28-2 2-8 7-13 12-9 8-13 11-28 24-9 7-11 11-6 8 2-1 3-2 4-3s17-13 30-23c3-2 9-6 12-9s8-6 10-8c3-2 7-6 10-8 3-3 9-7 13-11 7-5 11-8 25-20 1-1 4-3 5-5s4-3 5-4 4-4 7-6 9-8 14-11c5-4 15-13 24-21s22-20 30-26c8-7 21-19 29-27s19-19 25-24l10-10c0-1-1-2-2-2-2-1-3-1-8 2-3 2-7 4-9 6-3 3-6 4-6 2s-1-3-8-2c-9 1-26 8-31 12-7 6-30 26-47 41-9 8-22 20-30 27s-18 17-24 22c-10 9-18 15-23 15-1 0-11 4-21 9-36 18-38 19-55 24-4 1-7 2-30 14-15 7-21 9-23 7-1-1 0-2 1-3 2-1 3-3 3-4 0-3 5-9 9-12 1-1 9-8 17-16s18-17 22-20 9-7 10-8 5-5 8-7 9-7 13-10l8-6s-1-1-1-2c-1-1-1-1 0-3 2-2 12-10 14-10 1 0 1-1 2-1 0-1 5-5 11-9s10-8 11-9 4-3 9-6c11-8 13-9 16-12 2-1 4-3 5-4s7-5 13-9 12-8 14-10c5-3 8-7 8-9s8-7 41-28c6-4 12-8 15-11 5-5 14-10 20-10 2 0 6-3 10-5 10-7 11-8 16-11 3-1 10-6 17-9s13-8 16-9 8-5 14-8c5-3 17-9 26-14s19-11 23-13 13-7 22-12 18-10 21-11c3-2 12-7 19-11 8-4 15-9 18-10 3-3 4-3 11-2 6 0 7 0 9-2 1-1 1-3 1-3-1-2 2-4 4-3 1 1 1 1 0 3-1 1-1 3-1 4 0 2-5 5-7 5s-10 5-11 7c-1 3 0 3 5 1 3-1 5-1 6-1 2 2 0 4-3 4-2 0-4 1-6 3-3 3-3 4-2 7 0 3 0 3-1 3s-3 2-4 5c-2 4-3 5-2 8 1 5 5 8 10 8 9 0 30-7 38-13 2-1 3-2 4-2s16-8 21-11c4-3 21-12 37-20 4-2 11-6 16-9s11-7 13-8 6-4 9-6 7-4 9-5 5-3 7-5c4-4 4-7 1-4-2 2-15 8-26 12-3 1-8 3-9 4s-6 3-10 5l-8 4c0 1-4 3-8 4s-9 4-11 5-4 2-5 2-4 2-6 3-7 4-8 5l-6 3c-1 1-5 2-7 3s-9 4-15 7c-14 7-18 9-25 9-5 0-7 1-10 2-4 3-5 3-5 1 0-1 1-2 2-3l3-3c1-2 1-2 5-2 2 0 6 0 9-1 5-1 19-8 25-12 2-1 8-5 15-8l14-7c1-1 5-3 8-4s7-3 9-4 8-5 13-7c5-3 10-6 11-6 4-2 29-14 33-16 2-1 5-2 7-3 3-2 13-13 15-17 1-3 1-3 0-3s-3 1-4 1c-1 1-4 2-6 3s-3 2-3 2-2 2-5 3c-16 7-43 20-50 25-2 1-5 3-7 4-6 3-8 4-15 7-3 2-7 3-7 3-1 0-4 2-8 4s-9 4-11 5c-2 0-5 1-6 2-2 1-4 1-5 0-2-1-2-1 0-2 1-1 4-1 6-1 4 0 30-13 45-22 9-5 11-7 20-11 3-2 9-5 14-8 9-5 27-13 38-17 4-1 9-3 10-4s5-3 8-3c3-1 6-2 7-3s5-4 8-6 8-5 9-6 3-2 4-2 3-1 4-2 3-2 4-3c1 0 2-1 1-1s-2 0-3 1-3 1-4 1c-2 0-4 1-21 9-5 2-9 4-9 4-1 0-4 2-8 4s-11 5-16 7-9 4-10 5-4 2-6 3c-3 1-5 3-6 4s-2 2-3 2-4 2-7 4-11 7-18 11c-7 3-12 7-13 7-2 2-16 8-19 8-5 0-3-2 2-4 7-2 21-9 27-13 2-2 4-3 5-3 0 0 3-2 7-4 3-2 8-5 10-6s4-2 5-3c1 0 4-3 7-5 6-4 12-7 44-22 15-7 20-10 22-11 1-1 4-2 6-3s6-3 9-5c2-2 6-4 7-4 5-3 6-3 6-5 0-3-4-3-8 1-2 2-4 3-5 3s-3 1-4 1c-3 2-20 9-32 13-9 3-12 3-15 3-5-1-4-2 3-3 8-1 27-9 45-18 8-4 8-5 6-6s-2-1 1-3c10-4 17-8 24-15 5-4 8-9 8-10s1-2 2-2 2-1 2-2 1-3 2-4c3-3 8-11 8-12 0-2-4-1-6 2-1 2-3 4-5 4-1 1-5 3-7 6-5 5-16 13-22 16-7 4-12 7-17 10-3 2-5 3-6 3s-3 1-4 1c-1 1-5 2-8 3-6 2-11 4-16 7-3 2-11 5-12 4 0 0 7-4 13-7 1 0 4-2 6-3s8-4 12-5 9-4 12-5c3-2 5-3 5-3 1 0 17-12 22-17 4-4 6-6 6-8 0-3 2-4 2-2 1 2 4 1 8-3 3-2 5-5 5-7s1-3 3-2c1 0 3 0 5-1 4-2 16-14 16-15s-1-2-3-3-3-2-3-4 1-2 5-2c3 0 5 1 6 2 2 4 5 5 7 5 4 0 14-7 16-10 0-1 1-2 2-2s1-1 0-3l-2-4s-1-2-1-3c0-2 0-2-4 0-2 1-4 1-5 1-1-1-2-1-3-1s-2-1-2-3c0-3 1-4 4-2 2 1 6 0 9-3s5-1 4 2v3s1 1 1 3c0 1 0 2 2 1 1 0 2-1 3-1 2 0 11-6 16-11 2-2 5-4 5-4s2-1 4-3 3-3 3-5 0-3 1-3 1-4 1-7c0-5 0-7-1-7-3-1 0-7 6-13 3-3 5-4 5-3 1 1-1 4-3 4-1 0-4 5-3 6s14-4 18-7c4-2 6-5 3-5-1 0-2-1-3-2-2-2-4-2-7 1-2 2-4 3-3 1 0-1 1-2 3-3 3-2 3-2 2-6 0-2-1-5-1-7s0-3-1-3-1 0-1-1c1-2 9-9 11-10 1 0 3-1 3-2 1-1 2-1 2-1 2 0 1 3-2 6-7 7 7 5 17-1 6-4 8-4 5-1-1 1-3 4-3 6-1 3-1 3-4 3-2 0-6 0-10 1-7 2-7 2-9 0-2-3-4 0-4 5 0 4 0 5 3 6 2 1 4 2 6 1 2 0 3 0 4 1 1 4 6 5 9 1 1-1 3-2 4-2 3 0 9-2 9-4 0-1 1-2 2-2s4-3 7-6 6-5 6-4-2 3-4 5c-3 3-5 6-6 7-1 3 0 3 3 1 12-8 14-9 15-9s2 0 2 1-10 11-11 11-3 4-2 5c1 3 4 2 7-3 3-6 11-13 12-13s2 1 2 1c1 1 2 1 4-1 4-3 5-2 4 1-1 5-3 6-9 6-4 0-6 1-7 3-3 3-2 8 0 11l2 2 3-2c2-2 3-3 4-6 1-2 1-5 2-5l4 1c2 1 5 2 7 2s4 1 6 2c2 2 3 2 7 1 2-1 6-2 7-3s4-2 5-2 2-1 2-2 1-1 3-1c1 0 3 0 4-2s3-2 3-2c2 1-2 7-5 7h-3c-1 0-4 3-7 6s-6 6-7 6c-2 0-5 6-5 9 0 2 1 2 3 2 4 0 4 2 1 4s-4 6 0 5c1 0 3-1 4-2s3-2 4-2 4-2 5-4c3-3 3-3 2-7-2-6 0-7 6-6 4 1 5 0 11-3 4-2 7-3 7-3 0 1-2 4-4 7-3 5-3 7-3 9 1 3 3 4 4 2 0-1 1-1 2-1 2 0 4-3 2-4-1 0 0-1 1-2 2-1 2-1 6 1l3 3 2-2c5-5 7-12 7-24 0-16-1-26-5-28-1 0-2-1-4-1s-3 0-3-1 1-1 2-1 2-1 2-2c0-2-4-7-5-7s-4-3-7-6c-7-7-13-10-16-8s-4 2-4-2-3-5-8-3c-4 2-10 2-10 1 0 0 1-2 2-3 1-2 1-2 0-3s-4-1-6-2c-7-1-7-1-6-3 2-2 1-4-4-5s-6-4-3-6c2-1 2-2 2-5-1-3-1-3-5-4l-4-2s-1-2-3-2l-3-1 3-1c3-1 7-7 6-9 0-1-2-2-4-2-3-1-4-1-2-5 1-3 1-3 0-3s-2 0-3-1-5 0-7 1c-2 2-4 1-3-1 0-1 0-2-1-3-1 0-2-1-3-2s-2-1-6 0c-8 2-9 2-9 0 1-3-3-4-7-1s-4 3-5 0c0-2-1-2-5-2-3 0-5 0-5-2 0-1 0-2 2-2 1 0 2-1 3-2 1-3 3-2 5 2 1 3 1 3 3 2s2-2-1-5c-1-2-3-3-3-4 0-2-2-1-7 2-4 3-4 3-6 2-1-1-4-1-7-1h-5v-4c0-4 0-4 1-3s5 1 8 2c6 0 7 0 7-1 1-3 0-4-3-4-1 0-1-1-1-1 0-1-1-2-2-3-2-1-2-2-1-3s2-1 3-1 2 0 3-1 2-2 1-4l-2-2s-1-1 0-3c1-5-4-8-6-3-1 3-3 3-4 1 0-1-1-2-2-2-2 0-2-2 1-5 2-2 3-3 3-2 3 3 12-5 14-12 0-1 2-2 3-2 2 0 3-1 3-2s-1-2-1-2l-2-1c0-1-1 0-4 1-6 5-4 1 3-6 4-4 9-9 12-11 2-2 6-5 7-6 2-1 3-2 3-3s5-6 14-14c3-3 3-3 6-2 2 1 3 1 6 0 4-2 4-3 0-5-3-2-4-3-1-5s6-1 6 1c0 1 1 2 2 2 2 0 3-2 2-4-2-2 2-7 6-11 4-3 5-4 7-2 2 1 7-1 12-7 2-2 5-5 7-5s4-1 4-2c2-2 5-2 7-1s3 0 5-5c1-4 5-6 12-8 2 0 4-2 5-3 3-3 8-5 10-4s-1 7-4 7c-2 0-3 2-2 2 1 1 9-2 11-3 1-1 1-1 0-2s-1-2 0-3c2-2 4-2 6 1 2 2 2 3 2 5-1 2 0 3 1 3s2-1 2-2c1-2 3-2 4 0 0 1 2 2 10 2 16 0 21 2 12 4-4 1-8 4-7 6 0 1 1 1 1 1s4-1 7-1c5 0 7-1 11-3 3-2 5-3 5-2 1 2 3 1 7-1s7-3 11 0c3 1 3 1 7 0 3-1 4-2 5-4 0-1 1-2 3-3s3-1 4-4c0-2 1-3 3-3s3-1 3-2 1-2 2-1c1 0 4 1 6 1 5 1 7 2 7 5s0 3-6 4c-4 1-4 0-4-1 0-3-1-3-5-2l-3 2 3 3c2 2 4 3 7 3 2 0 5 1 6 2 3 3 6 2 5-2 0-2 0-3 2-3 1 0 3 0 4 1s2 1 5 0c4-1 5-1 3 1s-1 3 2 3 3 0 3-2c-1-2 1-4 5-4 4-1 5 0 6 3 0 1 1 3 3 4 1 1 3 2 3 2s2 1 3 1c2 0 2-1 3-3 0-2 1-3 3-3 3 0 3 2 0 5-2 2-2 2-1 4 2 2 2 2 5 0 4-2 7-2 8 0 1 3 1 3-1 3-3-1-5 2-4 6 1 5-1 5-4 0l-1-3v3c0 2-1 3-3 3s-5 4-5 9c0 4-2 2-3-2 0-4 0-4-3-3s-3 6-1 10c2 5 2 6-1 4-1-1-2-3-2-5s0-3-1-3-2 3-2 7c0 6-13 14-20 13-5-1-5 1 0 2 2 1 5 2 6 2 3 2 6 2 8 1 1-1 3-1 4-1 2 1 9-2 10-4 0-1 2-2 3-2 2-1 2-1 2-3 0-1 0-2 1-3s2-3 2-5c0-4 2-5 3-1 0 1 0 3-1 4-2 2-2 4 0 5s1 3-2 5c-1 1-3 2-4 4-3 6-20 10-33 7-5-1-5-1-4 2 0 1 1 3 1 5 0 1 1 3 3 3 3 1 3 3 0 11-1 2-2 6-2 8-1 10-1 11 1 14s2 3 0 3c-5 1-7 5-4 6 1 0 2 2 2 5 1 5 1 5 0 8-1 2-1 2 3 2 2 0 5-1 6-2s3-1 4-1 5 7 5 8c-1 1-10 1-12 0s-6 1-6 3c0 3-9 13-15 15-5 3-7 4-7 5 0 0 3-1 7-2s7-3 8-3 3-1 6-3c6-4 8-4 8-3s0 2-1 2c-2 1 0 8 3 10 3 3 3 3 0 8-2 5-2 8 1 6 1-1 1-2 1-3s1-3 1-4c1-1 2-6 3-9 1-4 2-7 2-7s1 6 1 14 1 15 2 16 1 2-1 3c-1 1-2 1-3-1-2-2-3-1-4 2 0 2 0 2 4 3 3 0 5 1 6 2s2 1 4-2c3-4 2-10-1-14-2-3-3-6-1-9 1-1 1-3 0-7s-1-6 1-8c2-3 1-7-2-7-1 0-3 1-5 2-3 1-4 1-6 0l-3-3c0-2 2-3 4-1 1 2 2 2 2 0 1-2 1-3 1-4 0 0 1-1 2-1 3 0 5-3 3-4-1-1-1-2 0-2 1-1 4 3 4 6 0 2 1 2 4 0 2-3 6-3 8 0s4 2 4-1c0-4 2-4 4-2 1 1 2 2 3 2s5-6 5-7-3-1-6-1c-4 0-7-1-9-1-1-1-4-1-7-1-4 0-4 0-6-3-1-3-1-3 1-3s3 1 4 2c1 2 2 2 13 2h12s0-1-1-2-2-2-2-3c1-1 5-1 8 0 1 1 3 1 7-1 3-1 10-2 17-2 10-1 12-1 14 1 1 1 2 1 2 0 1-2-2-5-4-4s-5-2-3-3c16-5 24-6 40-6 21 0 20 0 21-4 1-5-1-9-5-9-1 0-3 0-4-1-2-1-1-3 2-3 1 0 2-1 2-2s1-2 2-2 2-2 3-4c1-4 2-5 4-3 2 1 2 1 4 0s2-1 5 1c2 1 4 2 7 2 2 0 5 0 5 1 1 1 2 1 3 0s4-1 7-1c4 0 5 1 4 2-1 3-1 8 0 9s1 1 2 0c2-3 4-2 4 2 0 2 2 3 3 1 1-1 2-2 4-2s3-1 3-3c0-3 3-4 4-2 1 1 1 2-1 3-3 3-3 8 0 8 1 0 3-1 5-2s3-1 5 0 2 1 4-1 3-2 7-2c4 1 6 0 4-2-2-1-1-3 3-5 3-1 5-1 6-1 3 1 3 1 4-1 2-4 12-4 15-1 0 1 1 1 2 0s5-1 10-1c8 0 8 0 10-2s2-2 5-1c2 1 3 2 4 3s4 3 8 4l7 2-4 1c-2 0-7 1-11 1s-10 1-13 2-8 2-12 2-8 1-11 2c-7 3-29 6-48 7-10 0-18 1-18 2-1 1-3 1-6 1-2 0-7 1-11 1-4 1-9 1-13 1-14 1-26 3-29 5-1 1-2 1-3 1s-2 1-2 3c-1 2-2 3-5 3-4 1-6 2-8 8-2 7-2 9 1 12 3 2 3 3 3 9v6l-2-2c-1-1-4-3-7-4-6-4-10-7-9-8l4 1 4 2c1-1-1-4-2-4-2 0-1-4 1-5 3-1 2-3-2-4-2 0-3-1-4-2 0-2 0-2 3-3s5-2 5-5c0-1-1 0-3 1-1 1-3 2-4 1-3 0-4 1-4 4s0 3-5 3c-4 0-6 0-9 2-2 1-4 2-5 2-3 0-3 3 0 4 2 1 3 1 5 0s3-1 4 0c2 2-2 5-6 6h-4s-1 1-1 3c0 3 0 3-3 2-2-1-3 0-3 1 0 4 14 9 28 11 6 1 19 5 21 7 1 1 1 1 0 2s-3 0-6-1c-5-2-25-6-35-8-2 0-6-1-7-2-3-2-5-1-5 1 0 1 1 1 4 1s5 1 9 5c5 5 6 5 11 6h8c2-1 6 0 15 5 4 3 5 3 5 6 0 5 2 11 4 14s2 3 0 3-2 0-2 7c0 4 0 7-1 7 0 0-2-2-3-4-2-4-9-11-9-9 0 3 9 16 11 16s4 6 4 10c0 2 1 6 2 11 3 9 6 30 7 41 1 12-1 25-8 48-5 17-13 36-17 43-1 1-2 7-3 13-4 29-6 38-7 41-1 1-3 8-5 14-3 15-4 16-5 16l-1-1c0-1-1-1-1 0s-2 3-3 4c-5 5-12 18-15 27-4 13-5 13-4 5v-9c-2-2-6 3-11 14-3 6-5 11-6 12-4 6-11 17-14 20-2 2-5 7-7 12-3 7-16 32-27 53-3 5-6 11-7 13s-3 4-3 5-2 3-3 5c-8 13-10 17-14 21-2 2-7 9-10 15-4 6-9 13-11 17s-10 14-16 24-15 21-18 26c-4 5-9 12-12 16s-7 10-10 13c-2 3-6 9-9 12-2 4-7 9-11 12-3 3-7 6-8 8s-3 5-4 6l-3 4 3-6c1-3 3-6 3-7 0-2-3 2-6 8-2 4-4 8-5 9s-2 3-2 4-2 3-4 6c-2 2-5 6-6 8-2 4-8 10-10 10s-2 0 2 5c3 5 3 9 0 4-1-1-3-3-4-3-2 0-2-1-2-3s0-2-1-2-1 1-1 1c1 2-5 7-8 7-1 0-3 1-5 3-3 3-5 3-5 1s4-9 5-9 2-1 3-2 0-1-6-1c-7 1-8 0-6-2 1-1 1-2 0-2-1-1-7 4-7 7 0 1 1 3 1 4 1 1 1 1 0 2-3 2-7 13-7 18 0 2 0 4-2 5-1 1-2 2-2 3s-2 3-4 5c-3 3-5 4-6 3-2 0-2 0-3 3s-3 4-6 2c-2-1-2-2-1-3 2-2 0-4-5-4-3 0-6-1-8-2s-5-2-9-2c-7 0-8-1-8-4 1-3-2-6-4-3-2 2-4 2-6 0-1-1-1-2 1-3 1-1 3-1 4-1s1-1 1-2c0-2-1-2-10-1-3 0-3 0-3-2 0-1 0-3 1-5 0-4 2-3 5 0 2 2 4 3 6 4s5 4 7 7 4 5 5 5 2-2 8-13c4-8 5-10 4-11s-2-1-3 0c-3 2-3 2-3-1 0-4-11-12-19-14-2-1-3 0-6 3s-6 5-6 3c0-1 4-5 6-5s2-2 1-4c-2-2-4-3-4-1 0 0-2 4-5 7-3 4-5 7-5 8s-3 3-7 5c-7 4-7 4-10 2-1-1-3-3-3-4 0-2 5-6 9-6 3 0 4-1 3-5-1-3 0-4 5-8 5-3 7-6 4-6-1 0-2-1-3-2-1-2-2-2-5-1-5 2-6 2-4-1 1-3 0-6-3-6-1 0-3-1-5-3s-7-4-10-5c-4-1-7-2-8-3-2-1-2-1-3 0-2 2-6 3-8 2s-3-1-6 0c-2 1-4 1-4 2 0 2 5 8 12 12 20 13 24 16 29 17 3 1 6 2 6 3s-2 1-5 2c-4 0-6 0-10-2-5-2-6-3-6-5 0-3-2-4-5-2-2 1-2 1-6-2-5-4-14-11-15-11s-2-1-2-3c-1-2-2-3-4-3-1 0-4-1-6-2-6-4-10-5-18-4-7 1-7 1-9-2s-2-4-1-6 1-2-2-4c-3-3-9-3-11-1-1 1-2 1-3 1h-2c-1 1 1 2 6 6 8 6 15 12 19 15 2 2 6 6 9 7 2 1 6 5 9 7s6 5 8 5c6 3 11 8 11 11 0 1 1 3 1 4 2 3-2-1-9-6-13-11-51-38-55-39-1 0-2-1-2-2s-2-1-3-1-3-1-5-2c-3-3-9-4-15-2-5 2-7 1-3-1 3-2 3-3 0-3-1 0-2 0-2 1s-2 1-4 0c-3 0-5 0-5 1-2 1-9 1-9-1 0-1 0-1 2-1 3 0 4-2 2-3-1-1-2-1-4 1-3 2-14 4-14 2 0 0 2-2 5-4s5-4 4-4c-1-1-4-1-5 0-1 2-2 1-4-2-2-4-3-6-1-6s2-2 0-3c-1 0-2 0-3 1-1 2-2 2-3 1-3-2-6-2-7 0-1 1-2 1-4 1s-3-1-2-2c1-2-1-5-3-5-1 0-1 1-1 4 0 4-2 5-4 2s-3-2-4 1-4 7-5 7-1-1-1-2-1-3-3-5c-3-3-6-3-6 0 0 2-5 6-7 5-1-1-1-1 0-4 2-4 1-5-3-2-3 3-9 4-8 2 2-5 2-6 0-6-1 0-3 1-4 3-2 2-2 3-11 3h-10v-3c0-2-1-3-2-3s-2-1-2-2c0-2-1-2-7-3-6 0-7-1-7-2 0-2-1-2-5-1-3 0-5 1-6 1s-4 1-8 2-7 2-9 4c-3 2-22 15-32 20-3 2-12 7-21 12s-17 10-20 11c-2 1-6 4-9 6-16 12-33 24-34 24s-1 1-2 1c-1 1-4 3-19 11-3 2-7 4-9 5-7 4-11 7-31 16-11 5-20 10-20 9-1-1 9-9 14-11 3-1 6-3 8-4s5-3 7-4c5-3 6-5 5-7s-1-3 5-7c2-2 7-5 10-7 5-4 7-5 11-5 3 0 5 0 5-1 0 0 2-1 3-1 2 0 10-7 10-9 0-1 1-2 2-2s3-2 5-3c6-5 9-7 15-9s12-6 12-8c0-3-24 4-32 9-2 1-5 3-7 3-1 0-7 3-12 5s-12 5-16 7c-8 3-21 8-25 10-2 1-8 3-13 6-27 11-46 23-60 34-1 1-4 3-6 5s-5 4-5 5c-1 1-3 2-5 4s-8 6-14 10c-5 4-12 9-15 11s-7 5-9 7-7 6-9 8-9 7-14 12c-5 4-14 11-19 16-6 4-17 13-25 19s-16 12-18 13-6 4-9 7c-14 11-16 13-24 17-4 3-9 5-10 6s-4 3-7 4c-2 1-7 4-9 6-3 2-6 3-7 3-2 0-8 3-14 7-2 2-5 3-6 3h-5l-8-7zm17-75c3-3 3-4 0-3-2 1-6 6-4 6 1 0 2-1 4-3zm28-33c3-3 5-5 5-6-1 0-11 9-11 10 0 2 1 1 7-5l-1 1zm819-62c3-2 5-4 5-5 2-4 1-5-9-12-9-6-12-7-12-4 0 1-2 4-5 8-7 10-7 10 6 15 6 2 10 1 16-2h-1zm-541-13c2-2 1-3-2-3s-5 4-2 4c1 0 2-1 3-1h1zm588-27c0-3 2-7 8-12 5-5 6-8 4-8-1 0-3 1-4 2-3 2-5 3-5 1 0-1 10-12 12-13 5-2 10-9 8-11-1-1-2-1-4 1-4 2-5 2-5-1 0-1 0-3-1-3-2 0-4 4-4 6s-1 3-2 3h-3c-1-1 1-8 6-15 2-3 4-7 4-8 0-4-3-3-6 1-2 2-5 6-8 9s-5 6-5 7-2 4-5 6-6 6-6 7c-1 1-2 2-3 1s-1-1 0-3c1-1 2-3 3-4 2-1 5-7 5-9 0-1-1 0-3 1-6 4-11 10-13 14-1 2-2 5-4 7-3 4-3 8-1 10 1 1 5 3 10 4s10 4 14 6c7 4 9 4 9 1h-1zm-26-20c0-1 0-1 1-1h1s0 1-1 1h-1zm-821 19c0-1 0-1-2-1-1 0-3 0-3 1s1 1 2 1 2 0 3-1zm798-5c0-1-2-1-3 0 0 1 0 1 1 1s1-1 1-1h1zm11-3c0-1 0-2-1-2s-5 5-4 6 5-2 5-4zm-16-21c3-13 2-13-5-7-3 2-5 4-6 4s-2 1-2 3 8 8 10 8c1 0 2-3 3-8zm-42-20c4-2 4-6 0-7-2 0-13 4-13 5s5 4 8 4c1 0 3-1 5-2zm159-17c1-2 0-3-2-1-1 1-1 2 0 2s1-1 2-2v1zm-686-31c4-1 9-2 12-3s7-1 9-2 5-2 6-3 3-3 4-3 4-1 6-2 5-2 6-2 4-1 5-2c2-1 5-2 8-2s5-1 6-2 4-2 7-3c26-8 63-21 81-29 4-2 9-4 10-4s3-1 4-1c1-1 15-8 31-15 3-1 7-4 8-5l3-3h-4c-2 0-5 1-5 1-1 1-6 3-12 6-6 2-14 6-19 8-22 11-61 25-101 37-7 2-15 5-18 6-6 2-22 6-25 6-1 0-1-1-1-2s-1-2-2-2-3 1-4 2-2 2-3 2c-7 1-14 2-16 3-1 1-4 1-6 1s-6 1-8 2c-3 2-4 2-4 4 1 5 9 6 22 3v4zm-48-19c8-4 19-10 25-13s18-11 28-17c16-10 21-12 34-20 3-2 9-5 15-8 5-3 11-6 14-7 2-1 9-5 15-9s16-10 23-14c16-8 31-19 29-21-1-1-26 9-36 16-12 8-40 23-45 24-2 1-5 2-6 3s-6 4-10 5-11 6-17 10-17 10-27 15c-16 8-37 21-48 28-5 3-14 13-14 15s6 0 19-6l1-1zm178-81c3-1 5-3 4-3s-9 3-10 5 0 1 6-2zm229-64c1-1 2-2 2-3 0-3 5-11 7-11 1 0 2 0 2-1 0-2-9-1-10 1-2 2-4 8-5 13-1 3 1 3 5 1h-1zm25-22c2-2 5-2 8-2 6 0 19-6 29-13l4-2 2-2c1-2 1-2-1-1s-2 0-2-1 1-2 2-2 2 0 3-3c2-4 2-5 0-7s-4-2-4 0c0 1-1 2-2 2s-2 1-3 2c0 1-2 2-4 2-2 1-3 2-3 3s-1 2-3 2h-4c-1 0-2 1-2 1 0 1-1 1-2 1-3 0-12 5-17 9-2 2-4 3-6 4s-8 8-7 9 8 0 11-2h1zm42-31v-2c1-1 2 0 2 1s-1 1-2 0v1zm-55 26c1-1 3-3 4-3s1-1 1-2c0-4 8-11 13-13 1 0 3-2 4-3 2-3 1-3-1-5-3-3-4-3-5 1s-3 4-4 1c-3-7 9-12 16-6 1 1 2 1 2 0s0-1-1-2c-2-1-1-4 1-6s2-2-1 0-3 2-5 0-2-2 0-4c1-1 2-1 3-1 1 1 10-2 11-3 1 0 2-1 3-1s2 0 2-1-4-3-6-3c-6 1-6-2 0-8 4-4 9-8 11-8l1 1c0 1-1 2-2 2-2 1-7 6-7 8 0 0 2 1 5 1 4 1 6 0 9-1l14-7c11-6 20-11 28-16 3-2 6-3 7-3 2 0 4-2 8-5 3-3 7-6 9-7 6-3 17-10 25-16 2-2 7-4 11-6s9-5 12-8l6-4 6-4c3-2 5-4 6-4 2 0 8-8 7-9-2-2 1-4 6-3s6 0 6-2c-1-3-10-4-12-2-2 4-19 10-28 11-5 0-8 2-6 4 1 2-2 3-6 3-3-1-4-1-3 2 1 2 0 2-2 2s-3 1-4 2c-1 2-2 2-5 1-1 0-4 2-7 5-4 4-6 6-6 7 0 2 0 2-2 2h-4c-1 0-3 1-4 2-1 0-3 2-4 4s-3 3-4 3c-3 0-7 3-11 7-2 3-4 4-7 4-4 0-4-1-2-4 1-1 1-1 1-2-1-1-8 4-10 6s-2 2 0 3c1 1 1 1 0 2h-2c-2-2-5 1-4 2 1 2 0 3-2 3s-5 2-9 4c-2 2-2 2-4 0s-2-2 1-4l3-2-3-2-3-2 3-2c3-1 3-1 5 0 4 3 6 0 2-4-2-2-1-2 2-5 6-6 1-7-9-2-4 2-7 4-7 4l-4 2c-3 2-3 2-4 0s-2-2-5 1c-5 3-6 5-3 5h3l-2 4c-3 5-3 7 0 8s2 2-2 3c-3 1-3 1-3 5 1 5 0 5-3 3-2-1-5 0-5 1s-5 8-8 12c-1 1-2 4-3 5 0 2-2 7-7 18-1 2-3 8-4 13s-3 10-4 12-1 5-1 6c1 2 4 2 7-1l-4 1zm16-35c-1-2 0-3 3-3 2 0 2 0 2 2s-4 3-5 1zm34-34c-1-2 1-4 3-4s2 2 0 4-2 2-3 0zm29-20c0-1 1-1 2-1s1 0 1 1-1 1-2 1-1 0-1-1zm-25-2c-1-2 0-3 4-4s6 1 3 2c-1 1-3 1-3 2-1 2-2 1-3-1l-1 1zm-101 84c0-1 1-2 3-2 1 0 4-3 6-5 2-3 6-6 9-7 4-2 5-3 5-4s0-1 1-1c2 1 10-4 10-6 0-1 1-1 3-2 1 0 3-1 3-2 1-1 3-3 5-4s5-3 6-5c2-3 2-5 0-3-1 1-3 1-4 1-2 0-3 0-5 2-1 2-6 5-10 7s-9 5-11 6-5 3-7 3c-8 2-10 5-15 13-5 9-5 11-2 10 1-1 2-2 3-2v1zm77-17h-1c-1 0-1 0-1 1s0 1 1 0l1-1zm-21-48c-1-1-3 1-2 2 0 1 1 1 2 0s1-1 0-2zm55-11c0-1 0-1-1-1s-1 0-1 1 0 1 1 1 1 0 1-1zm92-9c0-2-2-3-3 0 0 2 0 2 1 2s2-1 2-2zm10-2c0-1 0-1-1-1s-1 0-1 1 0 1 1 1 1 0 1-1zm-75-6c1-1 1-2 1-2l-2 2c-1 1-1 2-1 2s2-1 2-2zm7-6c0-1-5 2-5 3l2-1c1-1 3-2 3-3v1zm20-14c3-1 6-4 7-5l3-3c1 0 4-2 7-5s8-6 9-7c3-1 6-6 5-6-2 0-11 5-14 9-2 2-7 6-10 8s-7 5-8 6-4 3-6 5c-2 1-5 4-7 5-2 2-1 2 3-1 3-2 8-5 10-7l1 1zm-49 7c1 0 4-3 6-6s6-7 8-9c12-13 1-6-14 10-7 7-7 8 0 5zm116 1c1-1 1-2-1-4-3-4-4-4-4 0s3 7 6 4h-1zm-134-14c3-2 6-6 7-8l3-4-2-2-2-2s-1 3-3 5-4 6-6 7-3 3-3 4c0 3 1 2 6-2v2zm56-15c3-2 7-7 7-9s-12 2-16 5l-2 2h2c2 0 2 1 2 2s0 2-1 3c-1 0-1 1-1 2s0 1 3 0c2-1 4-3 6-4v-1zm67-8c5-2 10-5 12-5 1 0 3-1 5-3l4-3h-3c-2 0-4-1-5-2s-3-1-7-1c-4 1-6 1-10 0-5-2-7-1-7 1 0 1-1 2-3 4-4 4-6 2-3-3 3-6 0-9-6-6-4 2-8 7-7 11 0 3 0 3 4 3 3 0 4 0 5 2 0 1 2 2 3 3 3 2 15 1 19-1h-1zm7-21c1-1 4-2 5-3 2-1 3-2 3-2 0-2-1-4-3-4-3 0-16 7-16 9-1 3 9 3 12 0h-1zm-57-3c2-1 3-5 1-5 0 0-2 1-3 2s-3 2-4 3c-2 1-2 1 1 1 2 0 4 0 5-1zm67-21c2-3 1-3-2-2-4 2-5 3-5 4 1 1 5 0 6-2h1zm-63-4c2-2 4-3 5-3s2-1 3-3c1-1 3-3 4-3s3-2 4-3c1-2 1-2-1-1-6 2-9 3-12 3-2 0-4 0-5 1s-3 12-2 12 2-1 4-3zm161-12c-1-1-3 1-3 2s1 1 2 0 1-1 1-2zm-112-2c2-3 3-3 2-7s-2-5-9-7c-2-1-3 0-4 2s-3 3-4 4c-2 1-5 8-4 9h5c3 0 5 0 5 1 1 1 5 0 8-2h1zm-13-2c0-1 1-2 2-2s2 0 1 1c0 1-1 2-2 2s-2 0-1-1zm201-75c2-3 1-3-2-2-1 1-3 1-3 1-3 1-2 3 1 3 2 0 3-1 5-3l-1 1zm-4-9c1-2 2-5 2-6s0-1-2-1-2 1-2 4c0 2-1 5-1 6v2s2-2 3-4v-1zm-37 2h-1c-1 0-1 0-1 1s0 1 1 0l1-1zm15-2c3-3 0-6-4-5-3 0-4 1-4 4s0 3 3 3c2 0 4-1 5-2zm-31-5c0-3 0-5-1-5s-2 1-2 1c-1 2-3 2-3 1s0-1 1-1 1-1 0-2c-1-3-3-3-4 0-1 2 0 5 2 6 1 0 1 1 1 2s3 3 5 3 1-2 1-5zm218 2c-1-2-1-3-1-4 1-1 0-2-2-5-4-4-4-6-1-7 5-2 6-1 9 4 6 9 8 12 10 13l1 1s0-2 1-3c1-2 1-3-1-5l-4-4-8-8c-7-7-16-15-26-21s-24-17-24-19c0-1 1-2 2-2 3-2 3-3-3-8-5-4-5-4-6-3s-2 2-4 2-4 1-5 1c-2 1-2 1-7-1-3-2-5-2-6-2l1 1c2 1 2 5 0 6-3 2-2 8 2 17l6 12c2 2 3 5 4 8s3 5 5 7 3 4 3 5v3c1 2 1 2 5 1 3 0 5 0 7 1 3 2 4 1 1-2-1-1-2-3-2-5s-1-5-7-10c-4-4-8-9-9-12s-3-6-4-7c-2-2-4-10-4-10 1-1 2-1 2 1s6 8 7 8 1 1 1 2c0 5 4 10 8 10 1 0 4 3 7 7 4 5 6 7 9 8 2 0 4 1 4 2 1 3 9 15 10 15 0 0 1-1 1-2s1-1 2-1c2 1 1-2-3-5-4-4-2-5 3-1 2 1 4 3 5 3 2 0 2 4 0 6-1 1-1 1-3 0s-2-1-3 0c-1 2 1 3 8 4 3 0 5 1 6 2 2 2 2 1 0-2l3-1zm-11-24c-3-2-8-7-7-8l4 2s5 3 6 3 2 1 2 3-1 2-5 0zm-58-39c-2-3-2-5 0-5s3 2 2 5v2l-2-2zm15 0v-2c1-1 4 0 4 2 0 1-3 1-4 0zm-121 63c2-1 2-2 1-3s-1-1-3 0c-2 2-3 5-1 5 0 0 2-1 3-2zm-27-3c0-1-1-1-3 0-2 2-1 3 1 2l2-2zm-9 0c0-1 0-1-2 0s-2 2 0 2c1 0 2-1 2-1v-1zm-24-4c2-2 5-6 4-7l-3 1c-4 3-5 2-4-3s0-6-3-4c-2 1-3 1-5 0-6-3-11 1-9 8 1 4 4 4 7 0 3-3 5-4 6-2v3c-1 2-1 2 1 4s4 2 7 1l-1-1zm124-9c2-1 2-1 0-2-1 0-2-1-1-4s0-4-3-1c-1 1-1 3-1 6 1 6 2 8 2 5 0-1 1-3 2-4h1zm-10-2c0-2 0-3-1-3-1-1-3 6-3 8 1 2 1 2 2 0 1-1 1-3 1-5h1zm60 2c1-4 0-5-3-5-2 0-3 0-3-2-1-1-1-3-2-3-2-2 0 5 3 8 2 2 3 3 3 4 0 2 2 1 2-2zm-25-1c0-1 1-2 3-3s3-3 2-4-8 6-8 7c1 2 4 1 4-1l-1 1zm-198-3v-2c-1-1-4 2-4 3 0 2 3 1 4-1zm136-8c2-3 2-9 0-9-1 0-2 1-3 7-1 5 0 6 3 2zm19 1c0-1 1-3 3-4 3-4 3-7 0-6-1 0-3 1-3 1s-1 1-1 2-1 3-2 4c-2 2-2 5 1 5 1 0 2-1 2-1v-1zm152-2c-1-2-3-2-3 0s2 4 3 3v-3zm-313-4c-1-1-2-1-2 1 0 1 1 1 1 1 1 0 1-1 1-1v-1zm-10-1c3-1 3-5 1-6s-5 2-5 5c0 2 1 2 5 1h-1zm141-2c2-6-2-7-4-2-2 4-2 5 1 5 2 0 3-1 4-3h-1zm18-2c2-1 2-3 0-3h-2s0 1-1 2c-1 2 0 2 2 1h1zm162-3c0-2-2-4-3-3v3c1 3 3 3 3 0zm-168-3c-1-1-5-1-6 0-1 2 1 3 4 2 2-1 3-1 2-2zm-21-6 2-2c4 0 13-17 10-19-2-1-3-1-4 1s-2 2-4 1c-4-2-5-1-7 2-1 2-2 3-4 3s-3 1-3 3c-1 5 6 4 7-1 0-1 1-2 2-2s1 1 0 2c0 2 0 3 1 3 1 1 1 1 0 2s-2 2-2 3-1 3-1 3c-1 1-1 1 0 1s2-1 3-2v2zm6-10c-1-1 0-2 1-2s1 1 1 2c0 2-1 2-2 1v-1zm13 3c4-3 7-6 7-7s-2-1-3-1c-3 0-4 1-6 3-1 2-4 4-5 6-3 4-3 4-1 4 1 0 5-3 9-6l-1 1zm112-18c1 0 2-2 3-4 2-3 2-3 0-6s-5-4-5-1c0 1-1 2-3 3-3 2-4 6-2 7s4 2 6 1h1zm0-6c-1-2-1-2 1-2 1 0 2 1 2 2 0 2-2 3-2 0h-1zm-132 3c2-3 1-4-1-4s-6 3-6 5 6 1 7-1zm110 1c0-1 0-2-1-2s-1 1-1 2 0 2 1 2 1-1 1-2zm-9-1v-2c-1-1-4 1-3 3s2 2 3 0v-1zm48-5c0-1 0-1-2-1s-2-1-2-3c0-3-1-4-4-2-2 1-2 4 1 4 1 0 1 1 1 2s0 2 1 2c1 1 4 0 5-1v-1zm42-24c1-1 1-2 0-3-2-2-4 0-3 2s2 2 4 0l-1 1zm-11-4c1-1 2-2 3-2s1 0 1-1c0-2-2-1-3 1-1 1-2 1-6 1-3 0-4 0-4 1 0 2 1 3 5 3 2 0 4-1 4-2v-1zm18 0c2-2 1-3-1-2s-3 3-2 3 2-1 3-1zm-230-4c0-1 0-1-1-1s-2 1-2 2 0 1 1 1 2-1 2-2zm272-9c0-1 2-2 3-2 6-2 0-4-10-3-3 0-7 1-8 1-3 1 1 2 4 2 2 0 4 0 5 2 3 3 4 3 5 1l1-1zm-413 0c1-1-1-1-3 0-1 1-1 1 0 1s2 0 2-1h1zm425 0c0-1-1-1-2-1s-2 0-2 1 1 1 2 1 2 0 2-1zm-424-8c1-1 2-4 1-4s-8 5-8 6 6 0 8-2h-1zm131-2c0-1 2-3 3-4s2-2 2-4-1-2-4-2-5-1-2-3c2-1-2-3-5-2-1 0-3 1-4 1-3 0-3 2 0 3s4 3 1 5l-2 2c0 1 1 0 2-1 3-2 4-2 6 0 2 1 2 1 0 4-2 2-2 3-1 3s2-1 2-2h2zm-120-6c0-1 0-1-1-1s-1 0-1 1 0 1 1 1 1 0 1-1zm102-4 1-1-3 1-1 1 3-1zm-99-7c2-2 4-3 5-3s2-1 2-1c1-1 1-2-1-3-2-2-2-2-3 0-1 1-2 2-3 2-3 0-7 4-7 7s3 3 7-1v-1zm103-3h-1c-1 0-1 0-1 1s0 1 1 0l1-1zm121-15c-1-1-6-3-6-2 0 0 0 1 1 2 1 2 7 2 5 0zm-170-6c0-2-3 0-4 1 0 2 0 2 2 1l2-2zm82-16c0-1-1-2-4-4-3-1-4-1-11 0-4 1-8 1-9 1-2-1-11 2-12 4-1 1 19 0 23-1 3-1 7 0 9 2 1 2 4 0 4-2zm93-2c4 0 7 0 7-1s-1-1-1-1-2-1-3-2-2-1-3-1c-1 1-3 1-5 0-3-1-3 0-5 2s-2 3-2 4c1 2 1 2 3 0 2-1 5-2 9-2v1zm-168-2c2-2 0-2-3 1-2 2-2 2 0 1 1 0 3-1 3-2zm39-3c2-2 2-2 0-2-1 0-2 0-2 1s-2 1-4 1c-3 0-5 1-4 2s8-1 10-2zm47-4c1-3 0-3-2-1-1 1-3 2-3 2-1 0-1 0 0 1 2 1 5 0 5-3v1zm-32 0 3-1h-4c-5 0-10 1-10 2s8 1 11-1zm141-3c0-2-1-3-2-3s-2-1-2-3c0-1-1-3-2-3-4-2-19 5-16 8 1 2 8-1 9-3s5-3 6-1c0 1 0 2-1 3-2 2-1 4 1 2 2-1 2-1 4 0 2 2 3 2 3-1v1zm-129 0c3-1 3-1 1-2s-5 0-5 2c0 1 0 1 4 0zm33-1c3 0 0-2-3-2-4 0-4 0-3 2 1 1 2 1 3 1s2-1 3-1zm-63-4v-4l-4 3-4 4s2 1 4 1c3 0 4 0 4-4zm84 2c0-1 0-1-1-1s-2 1-2 2c0 2 2 1 3 0v-1zm-69-3 3-2h-6c-6 0-9 2-4 3 2 0 3 0 3 1l4-2zm119 0h-3c-2 0-2 0-1 1 2 1 4 1 4-1zm33 1c0-1-1-1-2-1s-2 0-3 1c0 1 0 1 2 1 1 0 3 0 3-1zm-138-3c0-1-1-1-2-1-2 0-3 1-1 2 1 1 3 0 3-1zm-38-4c2-1 2-2 1-1-1 0-3 1-4 1s-2 1-2 2c0 2 2 2 6-1l-1-1zm122 0c0-2-1-2-3-1s-1 3 1 3c1 0 1-1 1-2h1zm-114-3c1 0 1 0 1-1s-1-1-4 1c-2 1-2 2 0 1 1 0 2-1 3-1zm105 0c0-1 0-1-2-1s-2 0-2 1 1 1 2 1 1 0 2-1zm29 908c-1-1-5-4-8-6s-6-4-7-5l-3-3c-2-2 0-2 5 1 5 2 16 12 16 15 0 2-1 2-4-1l1-1zm-251-2c-2-3-3-5-1-6 1-1 2-3 2-6 0-7 2-5 3 3 1 6 1 12-1 12l-3-3zm98-1c-5-5-12-7-20-8-5 0-11-2-17-4l-9-4-14 1c-8 0-15 1-17 1-3 1-3 1-4-3-1-2-1-5-1-6 0-3-2-7-4-9s-2-3 2-3c3 0 4 0 5 4 2 7 12 11 17 7 3-3 4-3 6 0 1 2 1 2 3 0 3-3 4-2 4 2s0 4 4 5c14 4 26 6 28 4 1-1 2-1 4 1 1 2 3 3 5 3s4 1 8 5l5 5c0 1-2 0-5-2v1zm124 2s-1-3-1-5c-1-6 0-6 8-5 5 1 5 1 2 2-4 1-6 2-6 6 0 2 0 3-1 3s-2 0-2-1zm-12-1c-2-1-5-5-5-6h2c1 0 0-1-2-5-3-4-4-6-3-6s2 0 3 1c2 2 5 3 7 1 1-1 1-1 1 2s1 9 3 12c0 1 1 2 1 2 0 1-4 0-6-1h-1zm-67-5c-3-2-4-3-10-3-5 0-7 1-9 2s-2 1-4-1c-3-4-3-5 0-4 2 1 3 0 4-1s2-2 3-2c4 0 15 5 19 8 5 4 3 5-2 1h-1zm46 1c-1-1-2-4-4-12 0-2-1-3-2-3s-1-1-1-3c0-3-2-7-6-13-2-2-2-3 0-4s2-1 3 1 3 4 4 5c2 1 3 4 5 8 3 8 5 14 6 14 0 0 1-1 2-1 2-1 2-1 4 1 4 3 3 4-3 4-5 0-6 0-6 2 0 3-1 4-3 2l1-1zm-200-10c0-1 0-1 1-1s1 0 1 1 0 1-1 1-1 0-1-1zm-98-1c-8-1-9-2-1-2 7 0 9-2 11-7 1-3 5-3 6-1 1 3 5 2 6-1s5-3 5 0c0 4 2 6 8 6 7 1 12-1 20-6 7-4 8-6 4-10-3-3-2-4 1-5 2 0 4-2 5-3 1-2 2-3 4-3 3 0 3 0 1 5-1 3-1 5 1 8 2 5 4 7 8 8 2 0 3 1 4 2 0 1 0 1-1 1s-6-1-11-1c-8 0-10 0-14 2-3 1-6 3-7 4-2 2-3 2-9 2-4 0-8-1-9-2s-3-2-5-2c-3 0-7 2-7 3s-6 3-9 3c-2 0-6 0-9-1h-2zm333-1c0-2 0-2 2 0l2 2h-2c-1 0-2-1-2-2zm-216 1c-2-2 0-10 2-10s3 2 2 6-2 5-4 4zm-28-2c0-2 3-3 3-1 1 2 1 2-1 2-1 0-2-1-2-1zm-99-1v-1l1 1v1c-1 0-1 0-1-1zm260-2c-1-1-4-4-5-7-1-2-4-6-5-7-3-3-3-5-1-6 1 0 2 1 3 3s2 4 3 4c1 1 3 2 4 3s2 2 3 2 2 1 2 2c1 1 2 2 4 2 3 0 7 2 6 3 0 0-2 1-5 1-2 0-5 1-6 1-1 1-2 1-4-1h1zm-44 0c-1-2 2-7 5-7 3-1 4 0 2 3s-6 6-6 4h-1zm30-3c-2-6-11-12-14-10-1 1 0 1 2 2 4 1 9 6 9 8s-2 3-4 1c-3-2-4-3-6-1s-4 2-4 0c0-1 1-3 1-5 1-3 0-3-2-2-1 0-3 1-4 1-1 1-2 0-2-1 0-2-4-4-6-2-2 1-2 1-3-1s-1-5 1-5c1 0 2-1 3-1 2-2 13 0 21 3 10 5 18 16 12 16-2 0-3-1-4-3zm90 2c0-1 1-1 2 0 1 0 2 1 2 1h-2c-1 0-2 0-2-1zm-22-3c-1-1-1-4-1-5s0-3-1-3c-1-1-1-4 0-4s2 1 2 3l3 3c3 0 5 1 5 2 0 0-1 1-2 1-2 0-3 2-3 3-1 3-2 3-3 0zm-20 0c0-1 0-1 1-1s2 0 2 1 0 1-1 1-2 0-2-1zm-85-2c0-1 1-2 4-2 4 0 5 1 1 3-4 1-6 1-5-1zm65 0c0-2 3-5 4-4 2 1 1 3-1 4s-3 1-3-1v1zm14-1c-2 0-2-2-1-3s4 0 4 2c1 1 0 2-4 1h1zm40 0c-1-2 0-2 2 0 1 1 1 2 0 2s-1 0-2-1v-1zm-128-1c-1-1-4-2-5-2-3 0-3-1-3-2s1-2 2-2c2 0 2-1 1-4-1-1 0-2 1-1 1 0 2 2 2 3 1 4 2 4 6 4 3 0 3 0 3 2s-2 3-4 3-2-1-3-1zm151-6c-4-5-8-6-16-6-5 0-7-1-7-1 0-2 2-2 8-2 8 0 14 4 18 11 1 2-1 2-3-1v-1zm-232-1s-1-1-1-2-2-3-4-5l-4-4c1-1 8 3 8 6 1 2 3 2 4 1s2-1 3 1c1 1 2 3 2 3 0 1-8 2-9 1l1-1zm30 0c0-1 2-1 3-1 2 0 2 0 1 1-2 1-4 1-4 0zm131 0c0-1 0-2 1-2s1 0 1 1 0 1-1 2c-1 0-1 0-1-1zm-98-1c0-1 4-3 5-2v2c-1 2-5 2-5 0zm86 1c-1-1-1-2 1-2 1 0 2 1 2 2 0 2-1 2-2 1l-1-1zm54-1c-1-1-1-1 0-1 2 0 3 2 2 2l-2-1zm-150 0c0-1 0-3 2-6 2-5 5-6 6-3 1 2-7 10-8 9zm118-3c-1-5 0-7 3-6 1 1 2 1 1 4-1 7-3 7-4 1v1zm-190 1c0-1 0-1 1-1h1s0 1-1 1h-1zm7 0c0-1 1-1 3-2 2 0 2 0 2 1s-1 1-3 2c-2 0-2 0-2-1zm139-2v-1l2 1c1 1 0 1 0 1l-2-1zm33-1c-1-1-1-2 1-2 3-1 4 0 3 2s-3 2-4 0zm-253-1v-5c-1-2-1-2 1-1 1 0 4 1 7 1 5 0 8 2 7 3 0 0-2 1-4 0-2 0-4 0-6 1-3 2-4 2-4 0l-1 1zm133 1c-5-1-6-1-4-5 2-3 2-3 7-3s6 0 7-1c2-2 2-2 3 0s1 2-3 6c-2 2-5 4-6 4s-4 0-6-1h2zm151 0c-1-1 2-2 4-2 1 0 1 1 1 2s-4 1-4 0h-1zm-126-1c-1-2 0-4 2-4 1 0 1 1 1 2 0 3-3 4-3 1v1zm10 0v-2s0-2-1-4c-1-3-1-3 2-2 3 0 3 1 2 4-1 4-3 7-4 5l1-1zm-142-1c-7-1-7-3-3-9 3-5 2-6-1-2-3 3-7 6-8 6-3 0 4-8 10-11 2-1 2-1 3 1s3 3 4 1 2-1 4 2c2 4 4 4 6 1 2-4 4-3 4 2 0 3 1 4 2 5l2 2c0 2-5 3-6 2 0-1-1-1-2-1s-2-1-2-2c-2-5-6-7-10-3l-2 2 4 2c2 1 5 2 6 2s2 0 1 1-5 2-9 1l-3-2zm36-2c-5-1-2-5 3-5 1 0 3-1 5-2 4-3 10-2 10 2 0 2-1 2-6 2s-6 0-6 2c0 1-1 2-2 2s-2 0-4-1zm119 0v-4c1-2 0-3-1-2h-4l-2-1 2-2c2-1 3-3 3-6 0-4 1-5 3-6 3-1 3-1 6 0 1 1 3 2 3 4 0 1 1 3 2 4s2 3 2 4c0 2 3 4 4 2 1-1 2-1 5 1 5 3 7 2 8-3 0-2 1-3 1-4 1-1 1-2 1-3 0-2-1-2-2-2s-4-1-6-3c-4-3-3-5 0-3 4 2 14 5 16 5 1 0 2 1 3 2s3 2 4 2c4 0 4 1 0 4-3 2-5 2-5-1s-3-3-7-2c-3 2-3 2-3 7 0 4 0 5-2 7-3 2-13 2-13 1s-1-1-3 0c-2 2-3 1-5-1-3-3-6-2-8 1-1 2-3 2-3 1l1-2zm-194-2s1-1 3-1h3s-1 1-3 1h-3zm259 1s-1-1-1-2 0-1 1 0 1 2 1 2c0 1-1 1-1 0zm-94-6c-3-4-3-5 1-4 3 1 4 3 3 6-1 2-1 2-4-2zm90-3c-2-1-2-1 0-2s7 1 8 2c1 2-5 2-7 0h-1zm-175 0c-1-1-1-4 1-5s7 0 8 2v2c-1 1-8 2-9 1zm-13-2s-1-1-1-2 0-1 1 0 1 1 1 2h-1zm-678-6c3-4 5-5 5-3l-4 4-4 3 3-4zm795 2c0-1 2-3 4-3s1 3-1 3h-3zm-126-2c0-1 0-2 1-2s1 1 1 2 0 2-1 2-1-1-1-2zm120 0s-1-2-1-3-1-3-1-3c-2-2 1-7 4-7s4-1 5-4c1-4 6-5 7-1 2 3-1 6-8 10-6 3-6 3-5 6s0 4-1 3v-1zm-101-4c0-2 1-2 2-2 3 0 4 4 0 4-2 0-3-1-3-2h1zm119-4c0-1 0-2 1-2s1 1 1 2 0 2-1 2-1-1-1-2zm-134-1c-1-2 2-7 6-9 3-1 5-3 6-4 2-2 3-2 7 2l4 4h-3c-2 0-6 1-9 4-9 5-9 6-10 4l-1-1zm-10-1c0-1 1-1 2-1s2 0 2 1-1 1-2 1-2 0-2-1zm154-2c-1-1-1-2 0-2 1-1 3 1 3 2s-2 1-3 0zm-182-1c-2-2-1-3 2-3 2 0 3 0 3 2s-3 3-5 1zm6-12c-1-1-1-2 0-3s2-1 2 0c1 2-1 4-2 2v1zm-705-6 2-2c1 0 0 1 0 2l-2 2c-1 0 0-1 0-2zm695-5c-3-2-5-4-5-5s0-1 2 0c5 2 12 7 12 8 0 2-4 1-9-3zm-396 1l2-2c2-1 3-1 1 1-1 2-3 2-3 1zm588-12c0-1 0-1 1-2h1s0 1-1 2h-1zm-217-8v-1c1 0 1 0 1 1v1l-1-1zm-481-123c0-2 3-4 22-16 26-16 38-23 40-24s2 0-1 3c-2 2-6 5-9 6-7 4-35 22-41 27-5 4-12 6-12 4h1zm28-34c0-1 1-1 2-1s1 0 0 1-1 1-2 1-1 0 0-1zm4-3c0-1 17-13 20-14 2-1 2-1 1 1-2 2-19 14-20 14s-1 0-1-1zm38-7c2-2 5-3 5-1 0 1-4 3-6 3 0 0 0-1 1-2zm28-16c3-2 7-5 8-5 2-1 2-1 1 1-2 2-9 6-12 7-2 0 0-1 4-4l-1 1zm12-6s1-1 3-2 5-3 8-5l6-4c1 0 16-9 18-11 1-1 4-2 6-3s6-2 9-4c13-9 14-10 16-9 1 0 5-1 10-4 10-6 21-13 22-15 1-1 6-5 7-5s1 1 1 2c0 3 8 0 8-3 0-1 1-2 2-2 2 0 2 0 1 4-1 7-1 7-16 13-2 1-6 3-9 5-4 3-13 6-22 9l-10 5s-9 5-11 6c-3 1-11 5-18 8-31 16-32 16-32 14l1 1zm-25-4c1-1 2-1 2-1 1 1-2 2-3 2s0-1 1-1zm12-7c0-1 1-1 2-2 1 0 3-1 3-2 1-1 2-1 3-1s0 2-3 3c-4 3-5 3-5 2zm11-7c1-1 6-3 7-2s-5 4-7 4c-1 0-1 0 0-1v-1zm11-5c0-2 25-17 28-17s-13 11-22 16c-5 2-5 3-5 1h-1zm-23-5 4-2s-1 1-3 2c-4 2-5 2-1-1v1zm11-6 4-2c1 1-6 5-7 5s1-1 3-3zm-17-2c-1-1-1-2 0-5 1-4 9-9 35-21 10-5 21-10 24-12s7-4 9-5 5-3 8-5 7-5 9-6 5-3 6-4 3-2 4-2c2 0 19-8 26-12 4-2 8-6 9-8s3-3 4-3 3-1 3-3c1-2 2-3 4-3 1 0 3-1 3-3 2-4 5-7 7-6 1 0 3 0 5-2 2-1 4-3 4-3 1 0 2-1 3-2s2-2 3-2 3-1 5-2 5-3 6-3c3-1 4-4 1-10-1-2-2-4-1-5 1-2 2 0 2 3 0 2 1 3 3 3 3 1 4 2 2 4-1 1 0 2 2 3l3 3c0 2 3 5 5 5 0 0 2-1 3-3 2-3 2-3 4-1 1 1 2 2 2 3s2 1 5 0c2-1 7-2 10-3s6-2 6-3c1-2 8-6 9-5s1 1-1 3c-1 1-4 3-5 4l-6 3s-4 2-6 2-4 1-6 3c-2 3-3 3-9 3-7 0-7 0-11-3-3-3-4-4-4-6 1-3-2-4-5-2-1 1-3 3-5 4-1 1-5 3-7 5s-6 4-8 5-3 2-3 2c0 1-1 1-2 2-1 0-4 2-6 4s-8 6-12 9-9 6-11 9c-2 2-10 7-19 11-8 4-18 9-21 11-8 6-28 17-38 22-19 9-27 14-33 19-2 2-6 4-8 5s-5 2-6 3-2 0-3-1l2 1zm142-2c0-1 1-2 2-1 1 0 2 1 2 1 0 1-1 1-2 1s-2 0-2-1zm-156-3c1-1 1-2 2-2s0 1-1 2-1 2-2 2 0-1 1-2zm151 0v-2c1-1 4 2 3 3s-2 1-3-1zm-53-12c0-1 6-4 7-4 1 1-5 5-6 5l-1-1zm-88-7c0-4-1-5-5-3s-3 0 1-5c8-10 18-19 29-26 6-4 16-11 22-16s14-11 17-12c3-2 9-5 13-8s10-7 13-9c7-4 31-19 38-24 4-3 12-11 13-14 0-1 1-1 2 0s1 2 0 3c-2 1-2 1 0 2 3 2 0 4-12 15-6 5-14 12-18 16-4 3-8 7-10 8s-7 5-12 10-11 10-14 12c-5 3-12 9-26 20-2 2-6 4-8 5s-6 3-8 6c-2 2-6 5-8 6s-5 3-6 4-4 3-5 4-5 4-9 7c-3 3-6 6-7 6 0 0-1-2 0-4v-3zm175 1v-2c1-1 5 1 5 2s-4 1-5 0zm-106-5c0-2 4-4 7-4h3l-3 2c-3 2-7 3-7 2zm99-1c0-1 1-1 1-1 2 1 2 3 0 3-1 0-2-1-2-2h1zm40-29c0-1 4-4 8-6 2-1 5-3 6-4s3-2 4-2 2-1 3-2l2-2c1 0 0 2-2 4s-4 4-5 4-4 1-6 3c-7 5-10 7-10 5zm-98-12c0-1 2-4 4-6s3-2 3 1c0 2-1 3-3 4-3 2-4 2-4 1zm108-4c1-1 5-2 4-1 0 1-1 1-3 2-1 0-2 0-2-1h1zm15 0c0-1 1-1 2-2 1 0 3-2 5-3s7-5 11-8 8-6 9-7c1-2 8-2 8 0 0 1-1 2-4 2-2 0-4 1-4 1s-2 2-5 4-7 5-9 6c-2 2-5 3-6 3s-2 1-3 2c-2 2-4 2-4 0v2zm-9-4c0-1 1-2 3-2 1 0 3-1 4-2 1-2 4-2 4-1s-8 6-10 6c-1 0-1-1-1-2v1zm10-8c-1-1-5-2-8-2-8-1-8-2-1-2 4 0 8-1 11-2 5-2 22-10 26-12 2-1 3-1 4-1 1 1-1 4-3 4-1 0-4 1-5 4-3 3-8 7-17 12-4 2-4 2-7 0v-1zm-62-1c0-1 1-2 2-2 2 0 2 0 1 2l-2 2s-1-1-1-2zm-36-1v-1l1 1v1l-1-1zm45-4c-1-1 6-6 9-7 2-1 3 1 2 3s-10 5-10 4h-1zm33-1c-1-1-2-5 0-5 1 0 3 4 3 6 0 1-2 0-3-1zm-72-1c-1-2-1-6 0-6s1 1 1 2 0 3 1 4c1 3-1 3-2 1v-1zm137-3c0-1 3-1 6-2s8-2 10-3c6-2 9-2 7 0-1 1-5 2-10 4-9 2-15 3-14 1h1zm-6-7c0-1 2-1 3-1s2 0 1 1c0 1-2 1-3 1s-2 0-1-1zm35 0c0-1 3-2 6-4 6-2 9-4 13-6 1-1 3-1 3-1 1 1-1 3-6 5l-4 2c0 1-10 5-11 5l-1-1zm-146-2c0-1 1-3 2-3 1-1 2-1 1 2 0 3-3 5-3 2v-1zm40-7c-1-3 0-10 1-10s1 1 1 4c0 2-1 5-1 6-1 2-1 2-2 0h1zm79 0c0-1 1-2 1-2 1 0 10-7 15-12 2-2 6-5 8-6s7-4 10-6c5-3 12-9 19-15 2-2 5-4 7-6 4-4 4-6 0-6s-5-2-2-4c1-1 3-2 3-3s1-2 2-2c2-1 2-1 2 2 0 2 0 3-2 3-1 0-2 0-2 1s4 3 7 3 3 0 2 2c-2 3-5 7-8 7-1 0-3 2-4 3-3 5-16 16-25 20-10 5-13 7-20 13-9 8-10 9-12 9-2 1-2 0-2-1h1zm-129-2c0-1 0-1 1-2h1s0 1-1 2h-1zm89 0c-1-1 3-5 5-5s8-4 18-10c7-5 14-8 15-7s-1 3-3 4-5 3-11 7-21 13-22 13-1-1-2-1v-1zm-88-13c-4-1-4-3 1-7 4-4 7-5 3-1-2 2-3 5-1 5 1 0 8-4 18-11 3-2 7-4 9-5 4-1 17-10 34-23 5-4 11-9 15-11 7-5 14-15 25-36 5-9 10-17 10-16 1 1-3 12-4 15-1 2-1 4-1 5 0 2 1 2 8-5l11-11c6-8 14-15 23-21s20-17 23-22c2-3 2-3-1-3-2 0-2 0 1-2 2-1 5-3 6-4 3-2 3-2 2-4s-1-2 1-4c1-1 2-3 2-5s0-3 1-4 5-10 5-10l-4 1c-3 2-4 2-5 0-2-2-2-2 1-4 2-1 4-3 6-4 4-2 19-16 22-22 3-5 3-5 4-3s1 3-2 7c-2 3-6 8-9 12s-6 8-6 8c-2 1-5 8-5 13v5c1 0 8-4 10-6 4-5 5-8 5-12-1-3 0-4 3-7 2-2 5-4 8-5s6-2 7-4c2-2 3-2 5-2 2 1 11-3 11-5 0-1 0-3-1-4-2-3-2-3 1-6 1-1 3-2 4-2 2 0 3-5 3-8v-2c1 0 2 8 1 10-1 1-1 3 0 6 1 2 2 5 2 7s1 3 2 3 4-8 4-11c0-1 1-2 2-3s2-3 1-4c0-1 0-3 2-4 1-1 2-3 2-4s0-2 1-2c2-1 2 0 0 3-1 1-2 5-2 7 0 3-1 5-3 7l-2 4c0 1 1 0 1-1 1-3 4-3 4 0 0 2 6 3 9 2 2-1 3-1 3 1 1 2 6 3 7 1 0 0 2-1 3-1s3-1 4-2 2-2 4-3c3-2 3-2 3 1 0 1-1 4-2 7s-2 6-2 8-1 4-3 7l-3 3h2c1 0 3 0 4-1s2-2 3-2c2 0 2 0 2 3 0 2-1 3-1 4s6 2 9 1c1 0 5-2 9-3s8-2 10-3h4l-3 2c-1 1-5 3-8 5-3 1-7 3-8 4-2 1-3 1-5 0s-3-1-7 0c-3 1-6 2-8 1-2 0-4 0-5 1-2 1-7-1-7-3 0-1 2-2 3-3 4-2 5-5 4-7-1-1-1-2 0-5 1-2 1-4 1-5 0-2-3-2-5 0-1 1-4 2-7 3-3 0-6 1-8 1-4 1-8 4-8 6 0 1 1 2 2 3s2 3 2 4c0 2 0 2 4 2 3 0 4 0 5 1 0 1-1 2-2 3-5 2-7 3-11 6-2 1-5 2-6 2-2 0-2 0-1-1l3-3c1-2 1-2-2-2s-3 0-3-5c0-3 0-5-1-5-5-2-10-5-10-7 0-1-1-3-2-3-2-1-2 0-4 3-1 2-3 6-4 9-2 5-2 5 0 7 1 1 2 2 1 4s0 3 3 5l4 4s-2 2-5 3c-10 5-16 7-28 8-7 0-12 1-14 2-3 2-10 8-20 17-5 5-12 11-15 14-6 6-8 9-4 10 3 1 2 3-1 2-2 0-3 1-6 4-6 7-12 16-17 23-2 4-5 8-6 8-3 3-6 7-6 8s0 1-1 1-1 1-1 2-1 2-2 3l-2 2s-1 4-3 7c-2 5-3 6-5 6-1 0-3 1-4 2-2 2-7 4-7 2 0-1 0-1 1-1s1-1 2-2 2-3 3-3 2-1 2-2 1-2 2-3c4-4 2-4-3 0-3 2-6 4-7 5s-4 2-5 3-4 3-7 3c-2 0-6 2-10 5-3 2-8 5-10 6s-6 3-9 4c-2 1-7 3-10 4s-12 5-19 9c-14 7-18 9-23 7l4 3zm215-155c5-1 6-2 3-4-1-1-3-3-4-5s-2-3-3-3-3 1-5 3-4 3-6 4c-4 2-3 5 2 6 4 1 5 1 12 0l1-1zm-86 143c0-1 0-1 1-2h1s0 1-1 2h-1zm4-4c0-1 3-4 5-4s2 2 0 4c-1 1-5 2-5 0zm-124-1s0-1 1-1h1s0 1-1 1h-1zm-39-8c1-2 4-3 4-1 0 1-3 3-4 3v-2zm171 1c0-1 8-9 9-8s-5 8-7 9c-1 0-2 0-2-1zm-149-5c-1-1 0-2 1-2s1 1 0 2-1 1-2 0h1zm214 0c0-1 0-2 1-3 4-3 5-1 1 2-1 1-2 1-3 1h1zm-210-5c1-2 14-17 15-19 3-3 12-8 13-8 2 0 1 3-3 6-2 2-8 7-14 13-5 5-10 10-11 10s-1 0-1-1l1-1zm158-2c0-1 2-3 4-6s4-5 4-6 1-2 2-3 2-2 1-3c-1-2 1-5 3-5 1 0 3 7 2 9 0 1-2 2-3 2-2 1-3 2-3 3 0 2-7 9-9 9-1 0-1-1-1-1v1zm68-6c0-2 4-5 5-4s-3 6-4 6l-1-1v-1zm-19-4c1-4 7-8 7-4 0 2-5 7-7 7-1 0-1-1-1-2l1-1zm8-8c0-1 1-1 2-1s1 0 0 1c0 1-1 1-2 1s-1 0 0-1zm-88-3c7-8 12-12 12-11 0 2-11 14-13 14-1 0 0-1 1-3zm90-4c-6-1-6-1-7-6-1-2-3-5-5-7s-3-3-3-4l6 1c5 1 5 2 6 5 1 4 2 5 8 5 3 0 5-1 8-2 2-1 4-3 5-3 2 0 6-3 10-7 5-5 11-9 12-9s1 1 1 2c0 2-13 15-17 17-1 1-4 3-6 4-3 2-11 6-13 6l-5-1v-1zm-31-4c1-2 3-2 3 0 0 1-1 2-2 2s-1-1-1-1v-1zm70-11c-1-1 0-3 2-3 1 0 1 3 0 3h-2zm-32-16c-3-1-6-3-6-4-1-2 0-6 2-6 0 0 1 1 1 2s1 2 3 2 14-6 15-8c0-1 1-1 2-1s0 1-1 2l-5 5c-2 2-3 3-4 3l-1 1c0 3 11-1 21-7 4-2 7-4 8-4 0 0-1 2-4 5-6 5-18 12-22 12-1 0-5-1-8-3l-1 1zm-51-1c-4-3-4-3-2-8 1-3 2-3 3-3 1 1 1 2 0 4s-1 3 0 4c2 2 10 3 12 2 1-1 4-1 7-2 3 0 5-1 6-2 2-2 5-2 5-1 0 0-3 2-5 3-3 1-5 2-6 3s-4 2-8 2c-6 1-7 0-10-2h-2zm34-8c-3-2-1-4 3-5 3-1 5-2 8-5s4-4 5-3c2 2 0 4-7 10-5 5-7 5-10 4l1-1zm-47-5c0-1 1-1 2-1s1 0 1 1-1 1-2 1-2 0-1-1zm8-1c-1-1-1-2 0-4 1-4 3-3 3 1 0 3-1 4-3 3zm85-13c0-2 1-2 5-3 2 0 7-2 10-4 8-4 9-3 2 2s-8 6-13 7c-4 1-4 1-4-2zm45-1c-1-1 2-5 4-5s2 3 0 5c-1 1-3 2-4 0zm-9-1c0-1 1-1 2-1s1 0 1 1-1 1-2 1-1 0-1-1zm6-8c1-5 1-5 5-6l3-1-2 3c-1 2-2 3-2 4s-1 2-2 3c-2 2-2 2-1-3h-1zm-188-2c0-1 1-1 2-1s4-1 7-3c4-2 6-2 6-2 1 1-1 2-4 4-5 3-12 3-10 2h-1zm80-4c-1 0-1-1-1-2 0-2 0-2 2-1 3 1 4 2 3 3s-2 1-4 0zm-86-2c0-2 4-5 5-4s-3 6-4 6l-1-1v-1zm205-2c0-1 13-9 14-9 2 0 0 2-5 6s-10 6-10 3h1zm-144-2c-2-3-4-4-10-4-4 0-6 0-7 2-1 1-3 2-4 2s-1-1 3-3c2-1 6-4 7-5l3-3 2 3c1 1 3 3 4 3s2 1 2 2 1 1 5 1c5-1 6 1 1 3-4 2-4 2-5 0l-1-1zm79-1c0-4 2-7 4-7 3 0 3 6 0 8s-4 2-4-2v1zm-112 0c0-1 0-1 1-1s2 0 2 1 0 1-1 1-2 0-2-1zm122 0c0-1 0-1 1-2 11-4 18-6 16-4-1 1-9 5-13 6-2 0-4 0-4-1v1zm218-1c0-1 0-1 1-1h1s0 1-1 1h-1zm-185-7c-2-4 0-6 4-3 3 2 3 2 7 0 6-2 21-10 23-12 1-1 2-1 3-1 0 0 0 1-1 2s-4 3-7 5l-5 4h3c4 0 5 2 3 4s-8 2-9 0c-1-1-7-1-8 0s-4 2-7 2c-5 1-5 1-6-2v1zm137-3c0-4 2-5 7-4l4 1-5 3-5 3v-2l-1-1zm-294 0c0-1 1-2 2-2s0 2-1 3c-1 0-1 0-1-1zm287 0c-1-1 1-3 4-4s3 1 1 3-4 2-5 1zm-267-2c0-1 5-9 5-9v5c0 4 0 5-3 5-2 0-3 0-3-1h1zm133-3c0-1-2-1-4-1s-4-1-4-1c-1-1-3-1-4-1-6 0-4-2 4-5 10-4 14-4 8 0-5 3-5 6-1 5 2 0 4-1 6-2 6-4 7-4 8-3 0 0 0 2-2 2-1 1-4 3-5 5-3 3-4 4-5 2l-1-1zm82-1c1-2 8-7 10-7s1 2-2 4c-2 1-3 2-4 3-2 2-4 2-4 0zm-117-2c0-2 3-4 5-3s2 1-1 3-4 2-4 1v-1zm-113-3c1-5 3-9 6-10 3-2 3-1 1 2s-1 4 3 3c3-1 4-1 4 0s-2 2-4 3-5 3-6 4-2 2-3 2-1-1-1-3v-1zm172-1c-1-2 2-4 6-4 3 0 19-8 25-13l4-3 3 2c3 3 3 4 0 4-1 0-3 0-3-1 0-2-3-1-4 2-1 1-2 3-3 3s-4 1-7 3c-15 8-20 10-21 8v-1zm-9-2c-1-1 5-4 7-3 1 1 1 2 0 3-1 2-6 2-7 1v-1zm79 0c0-1 2-3 4-3s2 0 0 2-5 3-5 1h1zm-219-3c0-2 1-4 1-5s1-2 3-2 5-1 6-2c2-1 4-2 5-2 2 0-3 5-7 8-2 1-4 3-5 4-2 3-4 3-3-1zm254-5c0-1 0-1 2-1 1 0 2 0 2 1s-1 1-2 1l-2-1zm-26-2c0-1 1-2 2-2s2 1 2 2-1 2-2 2-2-1-2-2zm-145-1c0-2 6-6 7-5 0 0 0 2-1 3-1 2-2 3-4 3-1 0-3-1-3-1h1zm108-4c-1-1 9-7 11-7 0 0 3-1 5-3 4-3 5-3 5-1 0 1-5 5-7 5-1 0-3 2-7 4-6 4-6 4-7 3v-1zm-13-9c1-2 4-4 5-3 1 0 1 1 1 3s-1 2-3 2-3 0-3-1v-1zm11 0c2-2 4-2 3 0 0 1-2 1-3 2-2 0-2 0 0-1v-1zm-162-2c-1-2 3-5 4-4s-1 6-3 6c-1 0-1-1-1-1v-1zm161-4c0-1 0-1 1-1h1s0 1-1 1h-1zm-32-5c0-2-5-6-8-7-3 0-4-2-1-3 1 0 3-1 4-2 2-2 6-1 6 1 0 1 1 2 2 3 2 1 4 2 12 1 5 0 11-1 12-1 2-1 2 0 2 1s-2 2-6 4c-13 4-24 6-24 3h1zm39-1c0-1 1-1 2-2 2 0 2 0 1 1-2 2-3 2-3 0v1zm-5-9c2-1 4-1 4 0s-1 1-3 1-2 0-1-1zm-57-5c-1-1-2-2-2-3s-1-1-2-2c-3-1 1-10 5-10 3 0 4 3 1 5l-2 2h6c4 0 7-1 9-2 6-4 10-5 10-3 0 3-12 12-14 11l-4 1c-5 2-5 2-7 0v1zm78-4s-1-1-1-2 2-1 6-1c6 0 7 1 2 3-4 1-6 1-7 0zm-18-1c-1-2 4-4 8-3 5 0 6 2 4 3s-12 1-12 0zm-7-5c-2-1 0-4 2-4 1 0 3 0 5-1s2 0 2 1-1 2-2 2-2 1-4 1c-1 1-3 1-3 0v1zm-22-1c0-1 0-1 1-2 2-1 3 0 1 1-1 1-2 1-2 0v1zm56-4c0-1 1-1 2-1s2 0 1 1c0 1-1 1-2 1s-1 0-1-1zm9-1h2c1 0 1 1-1 1-1 0-2 0-1-1zm-52-1c0-1 0-1 1-1s1 0 1 1 0 1-1 1-1 0-1-1zm31-1c-1-2-1-2 5-2 5 1 6 2 3 3-4 1-7 1-7-1h-1zm28 1c2-2 7-2 8-1s1 2-4 2c-3 0-5 0-4-1zm-52-1s1-2 3-3l3-2-3 1c-2 0-3 0-4-2-1-1-2-2-3-1h-3c-1-1-1-1 2-3l3-2 1 2c0 2 1 2 4 2 2 0 3 0 3-1s2-1 5-1 5 0 6-1 3-1 6 0 8 1 11 1c5 0 8 2 5 3-1 1-12 2-20 1-6 0-9 1-9 4 0 1-1 2-1 2-1 0-3 0-5 1h-3l-1-1zm-28-2c-1 0-1-1-1-2 0-2 4-4 8-4 1 0 3-1 4-3 3-3 3-3 5 1 1 3 1 3 0 5-1 1-3 2-6 2-2 0-5 1-6 1-1 1-2 1-4 1v-1zm78-3c-1-2 0-3 2-1 1 1 1 1 0 2h-2v-1zm-100-2s1-1 1-2c2-1 3 0 2 2-1 1-4 1-4 0h1zm95 0c0-1 1-1 2-1s1 0 1 1-1 1-2 1-1 0-1-1zm6-9c0-1 1-1 2-1s1 0 1 1-1 1-2 1-1 0-1-1zm-63-4c-1-1-1-2-1-3 1-2 2-1 3 1 0 1 1 2 1 3 1 2-1 1-3-1zm415-3c-1-2 1-2 2-1s1 1 0 1-2 0-2-1v1zm-1-6s-1-1-1-2 0-1 1 0 1 1 1 2h-1zm-429-13c1 0 5-2 9-4 7-4 9-6 5-6-2 0-3-1-3-2 0-3 2-4 5-3 2 1 5 6 4 7-7 6-13 9-18 9-2 0-3 0-2-1zm-14-1c-2 0-3-1-3-3s1-2 6-2c3 0 6 0 7-1 3-1 3 0 1 1-1 1-3 2-4 3s-2 2-3 2-3 0-4-1v1zm439-2c0-1 0-2 1-2s2 4 1 4-1-1-1-2h-1zm-7 0c-1 0-3-1-5-1s-5-1-7-1l-4-1 4-1c5-1 16 3 14 4h-2zm-423-14c-2-3-2-4 0-4 1 0 1 1 1 2s0 2 1 2c2 0 2 2 1 2 0 0-2-1-3-2zm11-5c3-1 7-2 8-3 1 0 3-1 4-2s2-1 2 0c2 2-1 4-7 5-3 0-7 1-9 1-4 0-4 0 2-2v1zm18-9c-1-2 1-4 2-2 1 1 1 2 0 3s-2 1-2 0v-1zm291-4c-1-1-2-2-4-2s-9-6-9-8 4-1 6 2c1 1 3 3 4 3 3 0 6 3 5 6 0 2 0 2-2 0v-1zm-304 0c-1-1 0-3 2-3 1 0 3-1 5-1 2-1 3-1 4 0 2 3 1 4-4 4h-7zm-4-3c0-1 1-1 2-1s1 0 1 1-1 1-2 1-1 0-1-1zm337-3c-2 0-3-1-3-2 0-2 1-2 6 0s5 3-3 2zm-12-3c0-1 1-1 1-1 1 1 1 2-1 2-1 0-1-1-1-1h1zm-17-3c0-1 0-2 1-1v2c0 1-1 1-1-1zm-6-5c-3-2-2-3 1-2 1 1 3 2 3 2 0 1-1 1-3 0h-1zm30-3c-1-2 0-3 2-1 1 1 1 1 0 2h-2v-1zm-308-3c0-2 3-3 4-2s1 1 0 2c-2 1-4 1-4-1v1zm357-1v-2c1-1 1-1 2 0s1 2 1 2c-1 1-3 1-4 0h1zm-67-4c0-1 1-1 1-1 2 1 2 3 0 3-1 0-2-1-2-2h1zm6 1c0-1 1-1 2-1s2 0 1 1-1 1-2 1-1 0-1-1zm53-4c0-1 0-2 1-2s1 1 1 2 0 2-1 2-1-1-1-2zm30 0c0-1-1-2 0-2 1-1 2 0 1 2 0 1-1 1-1 0zm-72-2c-1-1-1-2 0-2s2 1 2 2v2l-2-2zm86-1c0-1 1-2 2-3l3-3c1-2 1-1 4 2 2 2 3 4 3 4s-3 1-6 1c-4 0-6 0-6-1zm-77-2c-1-1 0-3 2-3s2 0 1 2c-1 3-2 3-3 1zm173-2c-1-3 0-5 3-5s4 2 2 5c-2 2-5 2-6 0h1zm-83-1v-1l1 1v1c-1 0-1 0-1-1zm-18-2c-1-1 0-8 1-8l3 3c2 2 2 3 1 4-1 2-5 3-6 2l1-1zm-101-4c-4-2-4-2-2-5 2-2 2-2 4-1 1 1 3 1 4 1 2 0 6-3 6-5s2-2 3-2c1 1 1 1-1 3-4 4 0 7 5 3 1-1 4-1 7-1 4 0 6-1 7-2s3-2 5-1c2 0 5 0 7-1s5-2 7-2 5-1 9-2c3-1 8-2 11-2s9-1 13-1c8-1 36-3 57-3 13 0 28 1 34 3 2 1 13 1 23 2 29 1 27 1 24-3-1-1-2-5-2-7-1-4-1-5 2-4 1 0 3 1 3 2s1 3 2 4 1 3 1 4c0 5 5 9 12 9 2 0 2 0-1-2-2-1-3-3-4-3s-1-1-1-1c0-1-1-2-2-3s-1-3-1-3c1-2 1-2 3 0 3 2 15 8 17 8 1 0 8 2 12 5 2 1 3 6 2 8-2 2-9-1-9-4 0-1-1-2-3-3-6-1-7-1-7-1s2 1 4 3c2 1 3 3 3 3-1 1-4 1-14-2-12-3-33-6-45-6-7 0-22-1-33-2-20-2-67-2-69 0-1 1-15 3-25 4-6 1-14 3-19 4-2 1-4 1-6 1s-5 0-6 1c-3 1-20 4-24 4-2 0-3 1-4 2-2 2-2 2-6-1l-3-1zm-9-1c-1-3 1-4 3-3 1 1 2 2 1 3-1 2-3 2-4 0zm205-3c0-1 0-1 1-1s1 0 1 1 0 1-1 1-1 0-1-1zm-101 0s0-1 1-1h1s0 1-1 1h-1zm17-3c-1-1-1-2 0-2 1-1 4 1 4 3 0 1-3 1-4-1zm-93-5c2-3 6-6 6-4s-5 7-7 7c-1 0-1-1 0-2l1-1zm6-8c0-1 0-1 1-1s1 0 1 1 0 1-1 1-1 0-1-1zm34 0c0-1 0-1 1-2 1 0 1 0 1 1s0 2-1 2-1 0-1-1zm153-4c0-1 1-2 2-2 3 0 4 2 2 2-3 1-4 1-4-1v1zm-218 0c-1-1 0-2 2-2 1 0 1 1 1 1-1 1-2 1-3 0v1zm194-1c0-2 2-4 2-2 1 1 0 4-2 4 0 0-1-1-1-2h1zm-159-1c1-2 6-8 7-8 1 1-4 8-5 9-2 1-3 1-2-1zm-21-3c-1-2-1-3 0-3s3 4 2 4-1 0-2-1zm188 0c-2-2 0-4 4-4h7c3 0 4 0 4 2s0 2-2 1c-1 0-4 0-6 1-5 2-6 2-7 0zm-138-2c0-1 1-1 2-1s1 0 1 1-1 1-2 1-1 0-1-1zm12-3c0-1 0-1 1-1s1 0 1 1 0 1-1 1-1 0-1-1zm21 0c0-1 0-1 1-1h1s0 1-1 1h-1zm85-1c-1-1-1-2 1-2 1 0 2 1 2 1 0 1-1 1-2 0l-1 1zm-53-4c0-1 1-2 1-3 1-1 1-2 1-3 0-2 4-8 6-8 1 0 2-1 3-2s2-1 3-1c1 1 2 1 3 1s3 1 4 2c3 4 2 7-6 10-7 3-15 4-15 2v2zm7-2c2-1 2-2 0-2s-3 1-2 2 1 1 3 0h-1zm-86-9v-2s1 1 1 2v2c-1 0-1-1-1-2zm76-3c0-1 1-1 2-1s1 0 1 1-1 1-2 1-1 0-1-1zm-318-9c5-4 8-5 5-1s-5 5-7 5-1-1 2-4zm258-3c0-1 0-1 1-1h1s0 1-1 1h-1zm-20-8c-2-1-1-3 1-3s4-3 4-5c0-1-2-1-4-1-5 0-5-3 1-4 3-1 5 0 9 2s4 2 3 3c-6 1-6 1-8 5s-3 4-5 3h-1zm-221-2c1-1 1-1 2-1 1 1-1 3-2 3s-1-1 0-2zm8-2c-2-1-2-6 0-5h3c2 0 3 1 3 3v3l-2 1c-1 0-2 0-3-1l-1-1zm85 0c0-1 0-1 1-1s2 0 2 1 0 1-1 1-1 0-2-1zm26-6c-6-3-8-5-5-6 2-1 15 2 15 3s0 2-1 2-1 1-1 2c0 3-1 2-8-1zm189 1c0-1-2-1-4-1s-3 0-3-1 1-1 2 0c1 0 2 0 3-1 1-2 1-2 3 0 1 1 2 3 2 3 0 2-2 2-3 0zm-294-1c0-1 0-1 1-1s1 0 1 1 0 1-1 1-1 0-1-1zm86-1c-5-2-4-4 2-5h6s0 2 1 3c0 2 0 3-2 3-1 0-4 0-6-1h-1zm-28-2c-4-1-4-2 0-4 3-1 4-1 7 0l3 1-2 2c-1 1-3 2-3 2l-4-1h-1zm17 0c-1-1-1-2 1-2 1 0 2-1 2-2s1-2 1-2c1 0 1 0 0 3s-2 4-4 2v1zm170-3c0-2 0-4-1-4s-1-1-1-3 0-2 1-2 1 1 1 2 1 3 2 5c2 4 2 5-1 5-1 0-1-1-1-3zm-95 1c-1-2 0-3 7-4 3-1 3 0 3 1 0 4-8 6-10 3zm103-3c1-3 1-4-1-6-2-3-2-4-1-4 0 0 2 2 2 5 1 4 1 5 1 7-2 4-3 3-2-1l1-1zm30-1c1-3 2-3 5-1 5 2 4 4-2 4h-5l2-3zm-282 0c0-1 9-5 14-6 3 0 4 0 4 1 0 2-2 3-8 4-3 0-6 1-8 1h-3 1zm181 0c-2-3 5-8 7-5 1 1 0 2-3 5-3 2-4 2-4 1v-1zm-19-1c0-1 0-1 1-1s2 0 2 1 0 1-1 1-1 0-2-1zm33 0c-1-1 2-2 4-2 1 0 2 1 2 2s-5 1-6 0zm-134-2c-3-1-7-2-13-2-5 0-9-1-9-1 0-1 10-3 13-3 2 0 4 0 6 1s4 1 6 1c3 1 7 3 6 4-2 2-6 1-10 0h1zm85 1c-1-1 1-3 3-3 1 0 1 1 1 2 0 2-3 2-4 1zm66 0c-2-1-2-1-1-2 2-1 7 1 7 2s-3 1-6 0zm-182-1c0-2 4-5 5-5 2 1-1 5-3 6-1 0-2 0-2-1zm81 0c-2 0-3-1-3-3 0-5 0-6-1-7 0-1 0-2 1-2 2-2 9 3 7 5-1 1-2 1-3 1s-1 1-1 2c0 2 2 2 2 0 0-1 4-1 9-1 6 0 9 0 10 2 3 3 0 4-10 4h-12l1-1zm-88-4c0-1 1-1 2-1s1 0 1 1-1 1-2 1-1 0-1-1zm211 0v-1l2 1c1 1 0 1 0 1l-2-1zm30-2c-1-3 1-6 3-4 1 1 0 5-1 5 0 0-1-1-1-2l-1 1zm-254-1c0-1 1-3 2-3 2-1 2 2 0 4-1 1-2 1-1-1h-1zm4 0c-1-1 3-3 5-3 1 0 1 1 0 2-1 2-4 2-4 0l-1 1zm204-2c-1-1 0-2 1-1s1 1 1 2l-1-1h-1zm11-1c-1-2-1-3-1-3 1 0 4 5 3 5s-2-1-3-2h1zm-201-1c0-2-1-2-5-1-4 0-5 0-5-1 0-4 10-7 23-6 7 0 9 1 8 2-1 2-9 2-10 0-2-2-5 1-6 5-1 3-4 4-5 1zm13 1c0-1 1-1 2-1s2 0 2 1-1 1-2 1-2 0-2-1zm204-1c0-1 0-2 3-2s3 0 2 2c-1 1-2 2-3 2s-2-1-2-2zm-191-4c-2-1 0-4 3-4s6 1 4 3c-1 1-7 2-8 1h1zm23-4c1-2 2-2 3 0 0 1 0 1-1 1s-2 0-1-1h-1zm-15-4c-2-2-1-3 5-3s8 1 6 3c-1 2-9 2-11 0zm-20-5c-1-1-1-1-1-2 1-1 4 0 4 2 0 1-1 1-3 0z"/>
  </g>
  <metadata id="metadata9">
    <rdf:RDF>
      <cc:Work>
        <dc:format>image/svg+xml</dc:format>
        <dc:type rdf:resource="http://purl.org/dc/dcmitype/StillImage"/>
        <cc:license rdf:resource="http://creativecommons.org/licenses/publicdomain/"/>
        <dc:publisher>
          <cc:Agent rdf:about="http://openclipart.org/">
            <dc:title>Openclipart</dc:title>
          </cc:Agent>
        </dc:publisher>
      </cc:Work>
      <cc:License rdf:about="http://creativecommons.org/licenses/publicdomain/">
        <cc:permits rdf:resource="http://creativecommons.org/ns#Reproduction"/>
        <cc:permits rdf:resource="http://creativecommons.org/ns#Distribution"/>
        <cc:permits rdf:resource="http://creativecommons.org/ns#DerivativeWorks"/>
      </cc:License>
    </rdf:RDF>
  </metadata>
</svg>
